<?xml version="1.0" encoding="UTF-8"?>
<!-- Generator: Adobe Illustrator 27.5.0, SVG Export Plug-In . SVG Version: 6.00 Build 0)  -->
<svg version="1.1" id="Ebene_1" xmlns="http://www.w3.org/2000/svg" xmlns:xlink="http://www.w3.org/1999/xlink" x="0px" y="0px" viewBox="0 0 396.55 113.51" style="enable-background:new 0 0 396.55 113.51;" xml:space="preserve">
<style type="text/css">
	.st0{fill:#DF4807;}
	.st1{fill:#575756;}
</style>
<path class="st0" d="M74.24,30.88c-14.5,0.75-21.02,10.48-21.02,25.79v35.96H66.9V56.67c0-9.04,1.82-12.93,11.23-13.12V30.95  C77,30.82,75.18,30.82,74.24,30.88z M32.26,30.88C17.7,31.64,11.23,41.3,11.23,56.68v31.01c0,9.04-1.82,12.93-11.23,13.12v12.54  c1.13,0.19,2.95,0.19,3.89,0.13c14.62-0.88,21.02-10.61,21.02-25.79V56.67c0-9.1,1.7-12.93,11.17-13.12V30.95  C35.02,30.82,33.2,30.82,32.26,30.88z M125.53,30.45c-2.57-0.13-5.77,0-8.97,0.38v12.67c12.05,0,16.44,1.76,16.44,12.93v36.22h13.68  V54.73C146.68,40.74,138.71,30.95,125.53,30.45z M95.85,92.64h13.68V0.01H95.85V92.64z"/>
<g>
	<path class="st1" d="M196.88,55.56V31.27h5.31v24.29H196.88z"/>
	<path class="st1" d="M205.94,55.56V45.43c0-2.54,0.72-4.51,2.17-5.9c1.45-1.39,3.45-2.08,6.02-2.08s4.57,0.69,6.02,2.08   c1.45,1.39,2.17,3.35,2.17,5.9v10.13h-4.93V45.5c0-1.11-0.3-1.97-0.9-2.59c-0.6-0.61-1.39-0.92-2.36-0.92   c-0.97,0-1.76,0.31-2.36,0.92c-0.6,0.61-0.9,1.47-0.9,2.59v10.06H205.94z"/>
	<path class="st1" d="M231.72,55.88c-2.04,0-3.62-0.56-4.75-1.67c-1.13-1.11-1.7-2.8-1.7-5.07V33.39h4.93v4.65h4.44v4.16h-4.44v6.94   c0,0.9,0.23,1.53,0.68,1.89c0.45,0.36,1.13,0.54,2.03,0.54c0.25,0,0.55-0.01,0.88-0.03c0.34-0.02,0.64-0.05,0.92-0.07v4.09   c-0.49,0.09-0.96,0.17-1.42,0.23C232.82,55.85,232.3,55.88,231.72,55.88z"/>
	<path class="st1" d="M245.57,56.15c-1.8,0-3.42-0.41-4.86-1.23c-1.43-0.82-2.56-1.94-3.38-3.37c-0.82-1.42-1.23-3.04-1.23-4.84   c0-1.71,0.4-3.27,1.21-4.67c0.81-1.4,1.91-2.52,3.31-3.35c1.4-0.83,2.98-1.25,4.74-1.25c1.8,0,3.38,0.39,4.72,1.18   c1.34,0.79,2.39,1.86,3.14,3.21c0.75,1.35,1.13,2.89,1.13,4.6v1.84h-13.12c0.23,1.13,0.75,2.01,1.54,2.64c0.8,0.62,1.8,0.94,3,0.94   c0.83,0,1.59-0.19,2.27-0.56c0.68-0.37,1.29-0.98,1.82-1.84l3.96,2.57c-0.86,1.34-1.96,2.37-3.31,3.07   C249.16,55.8,247.51,56.15,245.57,56.15z M245.36,41.75c-1,0-1.84,0.27-2.53,0.82c-0.69,0.54-1.19,1.28-1.49,2.2h7.91   c-0.21-0.9-0.65-1.63-1.32-2.19C247.25,42.03,246.4,41.75,245.36,41.75z"/>
	<path class="st1" d="M256.77,55.56v-9.99c0-2.59,0.73-4.55,2.2-5.86c1.47-1.32,3.37-1.98,5.71-1.98c0.46,0,0.92,0.03,1.39,0.09   c0.46,0.06,0.88,0.13,1.25,0.23v4.37c-0.28-0.05-0.57-0.08-0.88-0.1c-0.31-0.02-0.64-0.03-0.99-0.03c-1.13,0-2.04,0.31-2.72,0.94   c-0.68,0.62-1.02,1.48-1.02,2.57v9.79H256.77z"/>
	<path class="st1" d="M268.54,55.56V45.43c0-2.54,0.72-4.51,2.17-5.9c1.45-1.39,3.45-2.08,6.02-2.08s4.57,0.69,6.02,2.08   c1.45,1.39,2.17,3.35,2.17,5.9v10.13h-4.93V45.5c0-1.11-0.3-1.97-0.9-2.59c-0.6-0.61-1.39-0.92-2.36-0.92s-1.76,0.31-2.36,0.92   c-0.6,0.61-0.9,1.47-0.9,2.59v10.06H268.54z"/>
	<path class="st1" d="M295.57,56.15c-1.5,0-2.9-0.39-4.18-1.18c-1.28-0.79-2.31-1.89-3.07-3.3c-0.76-1.41-1.15-3.03-1.15-4.86   c0-1.87,0.39-3.51,1.18-4.91c0.79-1.4,1.87-2.49,3.26-3.28c1.39-0.79,2.98-1.18,4.79-1.18c1.85,0,3.46,0.39,4.84,1.16   c1.38,0.78,2.45,1.86,3.21,3.26c0.76,1.4,1.15,3.05,1.15,4.94v8.74h-4.1l-0.1-2.74c-0.6,1.06-1.39,1.89-2.38,2.46   C298.04,55.86,296.89,56.15,295.57,56.15z M292.2,46.82c0,1.34,0.4,2.45,1.2,3.31c0.8,0.87,1.82,1.3,3.07,1.3   c1.18,0,2.17-0.42,2.98-1.27c0.81-0.84,1.21-1.89,1.21-3.14v-0.42c0-0.83-0.19-1.58-0.56-2.26c-0.37-0.67-0.87-1.2-1.51-1.6   c-0.64-0.39-1.35-0.59-2.13-0.59c-1.25,0-2.27,0.43-3.07,1.3C292.6,44.34,292.2,45.45,292.2,46.82z"/>
	<path class="st1" d="M315,55.88c-2.04,0-3.62-0.56-4.75-1.67c-1.13-1.11-1.7-2.8-1.7-5.07V33.39h4.93v4.65h4.44v4.16h-4.44v6.94   c0,0.9,0.23,1.53,0.68,1.89c0.45,0.36,1.13,0.54,2.03,0.54c0.25,0,0.55-0.01,0.88-0.03c0.34-0.02,0.64-0.05,0.92-0.07v4.09   c-0.49,0.09-0.96,0.17-1.42,0.23C316.1,55.85,315.58,55.88,315,55.88z"/>
	<path class="st1" d="M322.88,36.3c-0.86,0-1.57-0.28-2.15-0.85c-0.58-0.57-0.87-1.27-0.87-2.1s0.29-1.53,0.87-2.1   c0.58-0.57,1.3-0.85,2.15-0.85c0.86,0,1.57,0.28,2.15,0.85c0.58,0.57,0.87,1.27,0.87,2.1s-0.29,1.53-0.87,2.1   C324.45,36.02,323.74,36.3,322.88,36.3z M320.42,55.56V38.04h4.93v17.52H320.42z"/>
	<path class="st1" d="M337.11,56.15c-1.76,0-3.34-0.41-4.75-1.23c-1.41-0.82-2.53-1.94-3.35-3.35c-0.82-1.41-1.23-3.01-1.23-4.79   c0-1.78,0.41-3.37,1.23-4.77c0.82-1.4,1.94-2.51,3.35-3.33c1.41-0.82,3-1.23,4.75-1.23c1.78,0,3.37,0.41,4.77,1.23   c1.4,0.82,2.51,1.93,3.33,3.33c0.82,1.4,1.23,2.99,1.23,4.77c0,1.78-0.41,3.38-1.23,4.79c-0.82,1.41-1.93,2.53-3.33,3.35   C340.48,55.74,338.89,56.15,337.11,56.15z M337.11,51.43c1.23,0,2.25-0.44,3.07-1.32c0.82-0.88,1.23-1.99,1.23-3.33   c0-1.36-0.41-2.48-1.23-3.33c-0.82-0.86-1.84-1.28-3.07-1.28c-1.25,0-2.28,0.43-3.09,1.28c-0.81,0.86-1.21,1.97-1.21,3.33   c0,1.34,0.4,2.45,1.21,3.33C334.83,50.99,335.86,51.43,337.11,51.43z"/>
	<path class="st1" d="M348.7,55.56V45.43c0-2.54,0.72-4.51,2.17-5.9c1.45-1.39,3.45-2.08,6.02-2.08c2.57,0,4.57,0.69,6.02,2.08   c1.45,1.39,2.17,3.35,2.17,5.9v10.13h-4.93V45.5c0-1.11-0.3-1.97-0.9-2.59c-0.6-0.61-1.39-0.92-2.36-0.92s-1.76,0.31-2.36,0.92   c-0.6,0.61-0.9,1.47-0.9,2.59v10.06H348.7z"/>
	<path class="st1" d="M375.73,56.15c-1.5,0-2.9-0.39-4.18-1.18c-1.28-0.79-2.31-1.89-3.07-3.3c-0.76-1.41-1.15-3.03-1.15-4.86   c0-1.87,0.39-3.51,1.18-4.91c0.79-1.4,1.87-2.49,3.26-3.28c1.39-0.79,2.98-1.18,4.79-1.18c1.85,0,3.46,0.39,4.84,1.16   c1.38,0.78,2.45,1.86,3.21,3.26c0.76,1.4,1.15,3.05,1.15,4.94v8.74h-4.1l-0.1-2.74c-0.6,1.06-1.39,1.89-2.38,2.46   C378.2,55.86,377.05,56.15,375.73,56.15z M372.36,46.82c0,1.34,0.4,2.45,1.2,3.31c0.8,0.87,1.82,1.3,3.07,1.3   c1.18,0,2.17-0.42,2.98-1.27c0.81-0.84,1.21-1.89,1.21-3.14v-0.42c0-0.83-0.19-1.58-0.56-2.26c-0.37-0.67-0.87-1.2-1.51-1.6   c-0.64-0.39-1.35-0.59-2.13-0.59c-1.25,0-2.27,0.43-3.07,1.3C372.76,44.34,372.36,45.45,372.36,46.82z"/>
	<path class="st1" d="M394.26,55.81c-1.69,0-3.04-0.5-4.04-1.51c-1.01-1.01-1.51-2.45-1.51-4.32V30.4h4.93v19.22   c0,0.67,0.16,1.16,0.47,1.46c0.31,0.3,0.76,0.45,1.34,0.45c0.16,0,0.34-0.01,0.54-0.02c0.2-0.01,0.39-0.03,0.57-0.05v4.09   c-0.42,0.09-0.79,0.16-1.11,0.19C395.12,55.79,394.72,55.81,394.26,55.81z"/>
</g>
<g>
	<path class="st1" d="M209.65,92.64c-2.48,0-4.68-0.55-6.61-1.65c-1.93-1.1-3.44-2.62-4.53-4.56c-1.09-1.94-1.63-4.18-1.63-6.7   c0-1.85,0.32-3.54,0.95-5.08c0.64-1.54,1.53-2.88,2.67-4.03c1.15-1.15,2.5-2.03,4.06-2.65c1.56-0.62,3.26-0.94,5.08-0.94   c2.43,0,4.53,0.51,6.3,1.54c1.77,1.03,3.16,2.4,4.18,4.11l-4.3,2.81c-0.6-1.02-1.41-1.85-2.41-2.5c-1.01-0.65-2.26-0.97-3.76-0.97   c-1.37,0-2.6,0.33-3.71,0.99s-1.98,1.57-2.62,2.72c-0.64,1.16-0.95,2.49-0.95,3.99c0,1.6,0.32,2.99,0.95,4.18   c0.64,1.19,1.51,2.11,2.62,2.76c1.11,0.65,2.35,0.97,3.71,0.97c1.53,0,2.8-0.34,3.83-1.02c1.03-0.68,1.83-1.56,2.41-2.62l4.3,2.81   c-1,1.76-2.4,3.17-4.22,4.23C214.17,92.1,212.06,92.64,209.65,92.64z"/>
	<path class="st1" d="M230.71,92.57c-1.76,0-3.34-0.41-4.75-1.23c-1.41-0.82-2.53-1.94-3.35-3.35c-0.82-1.41-1.23-3.01-1.23-4.79   c0-1.78,0.41-3.37,1.23-4.77c0.82-1.4,1.94-2.51,3.35-3.33c1.41-0.82,3-1.23,4.75-1.23c1.78,0,3.37,0.41,4.77,1.23   c1.4,0.82,2.51,1.93,3.33,3.33c0.82,1.4,1.23,2.99,1.23,4.77c0,1.78-0.41,3.38-1.23,4.79c-0.82,1.41-1.93,2.53-3.33,3.35   C234.09,92.16,232.5,92.57,230.71,92.57z M230.71,87.85c1.23,0,2.25-0.44,3.07-1.32c0.82-0.88,1.23-1.99,1.23-3.33   c0-1.36-0.41-2.47-1.23-3.33c-0.82-0.86-1.84-1.28-3.07-1.28c-1.25,0-2.28,0.43-3.09,1.28c-0.81,0.86-1.21,1.97-1.21,3.33   c0,1.34,0.4,2.45,1.21,3.33C228.44,87.41,229.47,87.85,230.71,87.85z"/>
	<path class="st1" d="M248.03,92.22c-1.69,0-3.04-0.5-4.04-1.51c-1.01-1.01-1.51-2.45-1.51-4.32V66.82h4.93v19.23   c0,0.67,0.16,1.16,0.47,1.46c0.31,0.3,0.76,0.45,1.34,0.45c0.16,0,0.34-0.01,0.54-0.02c0.2-0.01,0.39-0.03,0.57-0.05v4.1   c-0.42,0.09-0.79,0.16-1.11,0.19C248.89,92.2,248.49,92.22,248.03,92.22z"/>
	<path class="st1" d="M257.78,92.22c-1.69,0-3.04-0.5-4.04-1.51c-1.01-1.01-1.51-2.45-1.51-4.32V66.82h4.93v19.23   c0,0.67,0.16,1.16,0.47,1.46c0.31,0.3,0.76,0.45,1.34,0.45c0.16,0,0.34-0.01,0.54-0.02c0.2-0.01,0.39-0.03,0.57-0.05v4.1   c-0.42,0.09-0.79,0.16-1.11,0.19C258.64,92.2,258.24,92.22,257.78,92.22z"/>
	<path class="st1" d="M270.76,92.57c-1.8,0-3.42-0.41-4.86-1.23s-2.56-1.94-3.38-3.37c-0.82-1.42-1.23-3.04-1.23-4.84   c0-1.71,0.4-3.27,1.21-4.67c0.81-1.4,1.91-2.52,3.31-3.35c1.4-0.83,2.98-1.25,4.74-1.25c1.8,0,3.38,0.39,4.72,1.18   c1.34,0.79,2.39,1.86,3.14,3.21c0.75,1.35,1.13,2.89,1.13,4.6v1.84h-13.12c0.23,1.13,0.75,2.01,1.54,2.64c0.8,0.63,1.8,0.94,3,0.94   c0.83,0,1.59-0.19,2.27-0.56c0.68-0.37,1.29-0.98,1.82-1.84l3.96,2.57c-0.86,1.34-1.96,2.37-3.31,3.07   C274.35,92.21,272.7,92.57,270.76,92.57z M270.55,78.17c-1,0-1.84,0.27-2.53,0.82c-0.69,0.54-1.19,1.28-1.49,2.2h7.91   c-0.21-0.9-0.65-1.63-1.32-2.19C272.45,78.44,271.59,78.17,270.55,78.17z"/>
	<path class="st1" d="M299.87,83.23v6.84c0,3.31-0.79,5.84-2.36,7.6c-1.57,1.76-3.86,2.64-6.87,2.64c-1.8,0-3.43-0.37-4.88-1.11   c-1.45-0.74-2.54-1.74-3.28-2.98l3.68-2.71c0.58,0.76,1.23,1.34,1.94,1.74c0.72,0.39,1.56,0.59,2.53,0.59c2.87,0,4.3-1.6,4.3-4.79   v-1.21c-1.18,1.44-2.88,2.15-5.1,2.15c-1.62,0-3.06-0.38-4.32-1.15c-1.26-0.76-2.26-1.82-2.99-3.16c-0.73-1.34-1.09-2.87-1.09-4.58   c0-1.8,0.39-3.4,1.18-4.79c0.79-1.39,1.88-2.47,3.28-3.26c1.4-0.79,2.99-1.18,4.77-1.18c1.85,0,3.46,0.39,4.84,1.16   c1.38,0.78,2.45,1.86,3.21,3.26C299.49,79.69,299.87,81.34,299.87,83.23z M286.48,83.09c0,1.27,0.39,2.32,1.18,3.14   c0.79,0.82,1.82,1.23,3.09,1.23c1.2,0,2.2-0.4,3-1.21c0.8-0.81,1.2-1.82,1.2-3.02v-0.21c0-0.83-0.19-1.58-0.56-2.26   c-0.37-0.67-0.87-1.2-1.51-1.6c-0.64-0.39-1.35-0.59-2.13-0.59c-1.23,0-2.24,0.42-3.05,1.27   C286.88,80.69,286.48,81.78,286.48,83.09z"/>
	<path class="st1" d="M311.6,92.57c-1.8,0-3.42-0.41-4.86-1.23c-1.43-0.82-2.56-1.94-3.38-3.37c-0.82-1.42-1.23-3.04-1.23-4.84   c0-1.71,0.4-3.27,1.21-4.67c0.81-1.4,1.91-2.52,3.31-3.35c1.4-0.83,2.98-1.25,4.74-1.25c1.8,0,3.38,0.39,4.72,1.18   c1.34,0.79,2.39,1.86,3.14,3.21c0.75,1.35,1.13,2.89,1.13,4.6v1.84h-13.12c0.23,1.13,0.75,2.01,1.54,2.64c0.8,0.63,1.8,0.94,3,0.94   c0.83,0,1.59-0.19,2.27-0.56c0.68-0.37,1.29-0.98,1.82-1.84l3.96,2.57c-0.86,1.34-1.96,2.37-3.31,3.07   C315.19,92.21,313.55,92.57,311.6,92.57z M311.39,78.17c-1,0-1.84,0.27-2.53,0.82c-0.69,0.54-1.19,1.28-1.49,2.2h7.91   c-0.21-0.9-0.65-1.63-1.32-2.19C313.29,78.44,312.44,78.17,311.39,78.17z"/>
</g>
</svg>